{
	"asset":{
		"generator":"Khronos glTF Blender I/O v4.5.48",
		"version":"2.0"
	},
	"scene":0,
	"scenes":[
		{
			"name":"Scene",
			"nodes":[
				14,
				16
			]
		}
	],
	"nodes":[
		{
			"name":"Group22372.001"
		},
		{
			"mesh":0,
			"name":"material_0.001"
		},
		{
			"mesh":1,
			"name":"material_0.002"
		},
		{
			"mesh":2,
			"name":"material_0.003"
		},
		{
			"mesh":3,
			"name":"material_0.004"
		},
		{
			"mesh":4,
			"name":"material_0.005"
		},
		{
			"mesh":5,
			"name":"material_0.006"
		},
		{
			"mesh":6,
			"name":"material_0.007"
		},
		{
			"mesh":7,
			"name":"material_0.008"
		},
		{
			"mesh":8,
			"name":"material_0.009"
		},
		{
			"mesh":9,
			"name":"material_0.010"
		},
		{
			"mesh":10,
			"name":"material_0.011"
		},
		{
			"mesh":11,
			"name":"material_0.012"
		},
		{
			"children":[
				1,
				2,
				3,
				4,
				5,
				6,
				7,
				8,
				9,
				10,
				11,
				12
			],
			"name":"material_0"
		},
		{
			"children":[
				0,
				13
			],
			"name":"Group22372",
			"rotation":[
				-0.7071068286895752,
				0,
				0,
				0.7071068286895752
			],
			"scale":[
				0.0005000000237487257,
				0.0004999999655410647,
				0.0004999999655410647
			]
		},
		{
			"name":"Geode"
		},
		{
			"children":[
				15
			],
			"name":"Sketchfab_model"
		}
	],
	"materials":[
		{
			"name":"material_0",
			"pbrMetallicRoughness":{
				"baseColorFactor":[
					0.800000011920929,
					0.800000011920929,
					0.800000011920929,
					1
				],
				"metallicFactor":0.2273246943950653
			}
		},
		{
			"name":"material_0.001",
			"pbrMetallicRoughness":{
				"baseColorFactor":[
					0.800000011920929,
					0.800000011920929,
					0.800000011920929,
					1
				],
				"metallicFactor":0.2273246943950653
			}
		},
		{
			"name":"material_0.002",
			"pbrMetallicRoughness":{
				"baseColorFactor":[
					0.800000011920929,
					0.800000011920929,
					0.800000011920929,
					1
				],
				"metallicFactor":0.2273246943950653
			}
		},
		{
			"name":"material_0.003",
			"pbrMetallicRoughness":{
				"baseColorFactor":[
					0.800000011920929,
					0.800000011920929,
					0.800000011920929,
					1
				],
				"metallicFactor":0.2273246943950653
			}
		},
		{
			"name":"material_0.004",
			"pbrMetallicRoughness":{
				"baseColorFactor":[
					0.800000011920929,
					0.800000011920929,
					0.800000011920929,
					1
				],
				"metallicFactor":0.2273246943950653
			}
		},
		{
			"name":"material_0.005",
			"pbrMetallicRoughness":{
				"baseColorFactor":[
					0.800000011920929,
					0.800000011920929,
					0.800000011920929,
					1
				],
				"metallicFactor":0.2273246943950653
			}
		},
		{
			"name":"material_0.006",
			"pbrMetallicRoughness":{
				"baseColorFactor":[
					0.800000011920929,
					0.800000011920929,
					0.800000011920929,
					1
				],
				"metallicFactor":0.2273246943950653
			}
		},
		{
			"name":"material_0.007",
			"pbrMetallicRoughness":{
				"baseColorFactor":[
					0.800000011920929,
					0.800000011920929,
					0.800000011920929,
					1
				],
				"metallicFactor":0.2273246943950653
			}
		},
		{
			"name":"material_0.008",
			"pbrMetallicRoughness":{
				"baseColorFactor":[
					0.800000011920929,
					0.800000011920929,
					0.800000011920929,
					1
				],
				"metallicFactor":0.2273246943950653
			}
		},
		{
			"name":"material_0.009",
			"pbrMetallicRoughness":{
				"baseColorFactor":[
					0.800000011920929,
					0.800000011920929,
					0.800000011920929,
					1
				],
				"metallicFactor":0.2273246943950653
			}
		},
		{
			"name":"material_0.010",
			"pbrMetallicRoughness":{
				"baseColorFactor":[
					0.800000011920929,
					0.800000011920929,
					0.800000011920929,
					1
				],
				"metallicFactor":0.2273246943950653
			}
		},
		{
			"name":"material_0.011",
			"pbrMetallicRoughness":{
				"baseColorFactor":[
					0.800000011920929,
					0.800000011920929,
					0.800000011920929,
					1
				],
				"metallicFactor":0.2273246943950653
			}
		}
	],
	"meshes":[
		{
			"name":"material_0",
			"primitives":[
				{
					"attributes":{
						"POSITION":0,
						"NORMAL":1
					},
					"indices":2,
					"material":0
				}
			]
		},
		{
			"name":"material_0.001",
			"primitives":[
				{
					"attributes":{
						"POSITION":3,
						"NORMAL":4
					},
					"indices":5,
					"material":1
				}
			]
		},
		{
			"name":"material_0.002",
			"primitives":[
				{
					"attributes":{
						"POSITION":6,
						"NORMAL":7
					},
					"indices":8,
					"material":2
				}
			]
		},
		{
			"name":"material_0.003",
			"primitives":[
				{
					"attributes":{
						"POSITION":9,
						"NORMAL":10
					},
					"indices":11,
					"material":3
				}
			]
		},
		{
			"name":"material_0.004",
			"primitives":[
				{
					"attributes":{
						"POSITION":12,
						"NORMAL":13
					},
					"indices":14,
					"material":4
				}
			]
		},
		{
			"name":"material_0.005",
			"primitives":[
				{
					"attributes":{
						"POSITION":15,
						"NORMAL":16
					},
					"indices":17,
					"material":5
				}
			]
		},
		{
			"name":"material_0.006",
			"primitives":[
				{
					"attributes":{
						"POSITION":18,
						"NORMAL":19
					},
					"indices":20,
					"material":6
				}
			]
		},
		{
			"name":"material_0.007",
			"primitives":[
				{
					"attributes":{
						"POSITION":21,
						"NORMAL":22
					},
					"indices":23,
					"material":7
				}
			]
		},
		{
			"name":"material_0.008",
			"primitives":[
				{
					"attributes":{
						"POSITION":24,
						"NORMAL":25
					},
					"indices":26,
					"material":8
				}
			]
		},
		{
			"name":"material_0.009",
			"primitives":[
				{
					"attributes":{
						"POSITION":27,
						"NORMAL":28
					},
					"indices":29,
					"material":9
				}
			]
		},
		{
			"name":"material_0.010",
			"primitives":[
				{
					"attributes":{
						"POSITION":30,
						"NORMAL":31
					},
					"indices":32,
					"material":10
				}
			]
		},
		{
			"name":"material_0.011",
			"primitives":[
				{
					"attributes":{
						"POSITION":33,
						"NORMAL":34
					},
					"indices":35,
					"material":11
				}
			]
		}
	],
	"accessors":[
		{
			"bufferView":0,
			"componentType":5126,
			"count":65631,
			"max":[
				106.30909729003906,
				81.96216583251953,
				246.9021453857422
			],
			"min":[
				-114.30648040771484,
				-138.02017211914062,
				2.70440936088562
			],
			"type":"VEC3"
		},
		{
			"bufferView":1,
			"componentType":5126,
			"count":65631,
			"type":"VEC3"
		},
		{
			"bufferView":2,
			"componentType":5125,
			"count":220719,
			"type":"SCALAR"
		},
		{
			"bufferView":3,
			"componentType":5126,
			"count":65749,
			"max":[
				34.06922912597656,
				20.49843978881836,
				186.07669067382812
			],
			"min":[
				-33.19118881225586,
				-27.719308853149414,
				99.94373321533203
			],
			"type":"VEC3"
		},
		{
			"bufferView":4,
			"componentType":5126,
			"count":65749,
			"type":"VEC3"
		},
		{
			"bufferView":5,
			"componentType":5125,
			"count":296760,
			"type":"SCALAR"
		},
		{
			"bufferView":6,
			"componentType":5126,
			"count":66175,
			"max":[
				31.373048782348633,
				22.935338973999023,
				211.4200439453125
			],
			"min":[
				-30.618925094604492,
				-79.34300231933594,
				56.677791595458984
			],
			"type":"VEC3"
		},
		{
			"bufferView":7,
			"componentType":5126,
			"count":66175,
			"type":"VEC3"
		},
		{
			"bufferView":8,
			"componentType":5125,
			"count":283077,
			"type":"SCALAR"
		},
		{
			"bufferView":9,
			"componentType":5126,
			"count":65823,
			"max":[
				37.951778411865234,
				28.555347442626953,
				249.92807006835938
			],
			"min":[
				-35.68784713745117,
				-44.536460876464844,
				48.04092025756836
			],
			"type":"VEC3"
		},
		{
			"bufferView":10,
			"componentType":5126,
			"count":65823,
			"type":"VEC3"
		},
		{
			"bufferView":11,
			"componentType":5125,
			"count":310983,
			"type":"SCALAR"
		},
		{
			"bufferView":12,
			"componentType":5126,
			"count":66482,
			"max":[
				113.0877914428711,
				89.07369995117188,
				249.92807006835938
			],
			"min":[
				-121.4520034790039,
				-145.0540008544922,
				2.701580047607422
			],
			"type":"VEC3"
		},
		{
			"bufferView":13,
			"componentType":5126,
			"count":66482,
			"type":"VEC3"
		},
		{
			"bufferView":14,
			"componentType":5125,
			"count":234999,
			"type":"SCALAR"
		},
		{
			"bufferView":15,
			"componentType":5126,
			"count":65728,
			"max":[
				105.88008880615234,
				82.23725128173828,
				230.14097595214844
			],
			"min":[
				-113.03913879394531,
				-135.682861328125,
				2.701580047607422
			],
			"type":"VEC3"
		},
		{
			"bufferView":16,
			"componentType":5126,
			"count":65728,
			"type":"VEC3"
		},
		{
			"bufferView":17,
			"componentType":5125,
			"count":303060,
			"type":"SCALAR"
		},
		{
			"bufferView":18,
			"componentType":5126,
			"count":65733,
			"max":[
				106.22499084472656,
				83.3460693359375,
				220.236572265625
			],
			"min":[
				-115.21638488769531,
				-138.437255859375,
				3.0717451572418213
			],
			"type":"VEC3"
		},
		{
			"bufferView":19,
			"componentType":5126,
			"count":65733,
			"type":"VEC3"
		},
		{
			"bufferView":20,
			"componentType":5125,
			"count":300312,
			"type":"SCALAR"
		},
		{
			"bufferView":21,
			"componentType":5126,
			"count":65695,
			"max":[
				113.0877914428711,
				89.07369995117188,
				247.0421905517578
			],
			"min":[
				-121.4520034790039,
				-145.0540008544922,
				2.712425708770752
			],
			"type":"VEC3"
		},
		{
			"bufferView":22,
			"componentType":5126,
			"count":65695,
			"type":"VEC3"
		},
		{
			"bufferView":23,
			"componentType":5125,
			"count":286581,
			"type":"SCALAR"
		},
		{
			"bufferView":24,
			"componentType":5126,
			"count":65663,
			"max":[
				104.74874114990234,
				80.53227233886719,
				247.03041076660156
			],
			"min":[
				-112.88346099853516,
				-132.97177124023438,
				11.68692684173584
			],
			"type":"VEC3"
		},
		{
			"bufferView":25,
			"componentType":5126,
			"count":65663,
			"type":"VEC3"
		},
		{
			"bufferView":26,
			"componentType":5125,
			"count":290922,
			"type":"SCALAR"
		},
		{
			"bufferView":27,
			"componentType":5126,
			"count":65656,
			"max":[
				106.01608276367188,
				83.21969604492188,
				246.5409393310547
			],
			"min":[
				-111.90689086914062,
				-135.32113647460938,
				2.7072386741638184
			],
			"type":"VEC3"
		},
		{
			"bufferView":28,
			"componentType":5126,
			"count":65656,
			"type":"VEC3"
		},
		{
			"bufferView":29,
			"componentType":5125,
			"count":267873,
			"type":"SCALAR"
		},
		{
			"bufferView":30,
			"componentType":5126,
			"count":65813,
			"max":[
				104.81852722167969,
				82.427490234375,
				246.44662475585938
			],
			"min":[
				-112.90000915527344,
				-136.053955078125,
				2.8619062900543213
			],
			"type":"VEC3"
		},
		{
			"bufferView":31,
			"componentType":5126,
			"count":65813,
			"type":"VEC3"
		},
		{
			"bufferView":32,
			"componentType":5125,
			"count":162423,
			"type":"SCALAR"
		},
		{
			"bufferView":33,
			"componentType":5126,
			"count":55166,
			"max":[
				40.387149810791016,
				50.46824264526367,
				249.82008361816406
			],
			"min":[
				-68.54570770263672,
				-88.37207794189453,
				48.06827163696289
			],
			"type":"VEC3"
		},
		{
			"bufferView":34,
			"componentType":5126,
			"count":55166,
			"type":"VEC3"
		},
		{
			"bufferView":35,
			"componentType":5123,
			"count":83091,
			"type":"SCALAR"
		}
	],
	"bufferViews":[
		{
			"buffer":0,
			"byteLength":787572,
			"byteOffset":0,
			"target":34962
		},
		{
			"buffer":0,
			"byteLength":787572,
			"byteOffset":787572,
			"target":34962
		},
		{
			"buffer":0,
			"byteLength":882876,
			"byteOffset":1575144,
			"target":34963
		},
		{
			"buffer":0,
			"byteLength":788988,
			"byteOffset":2458020,
			"target":34962
		},
		{
			"buffer":0,
			"byteLength":788988,
			"byteOffset":3247008,
			"target":34962
		},
		{
			"buffer":0,
			"byteLength":1187040,
			"byteOffset":4035996,
			"target":34963
		},
		{
			"buffer":0,
			"byteLength":794100,
			"byteOffset":5223036,
			"target":34962
		},
		{
			"buffer":0,
			"byteLength":794100,
			"byteOffset":6017136,
			"target":34962
		},
		{
			"buffer":0,
			"byteLength":1132308,
			"byteOffset":6811236,
			"target":34963
		},
		{
			"buffer":0,
			"byteLength":789876,
			"byteOffset":7943544,
			"target":34962
		},
		{
			"buffer":0,
			"byteLength":789876,
			"byteOffset":8733420,
			"target":34962
		},
		{
			"buffer":0,
			"byteLength":1243932,
			"byteOffset":9523296,
			"target":34963
		},
		{
			"buffer":0,
			"byteLength":797784,
			"byteOffset":10767228,
			"target":34962
		},
		{
			"buffer":0,
			"byteLength":797784,
			"byteOffset":11565012,
			"target":34962
		},
		{
			"buffer":0,
			"byteLength":939996,
			"byteOffset":12362796,
			"target":34963
		},
		{
			"buffer":0,
			"byteLength":788736,
			"byteOffset":13302792,
			"target":34962
		},
		{
			"buffer":0,
			"byteLength":788736,
			"byteOffset":14091528,
			"target":34962
		},
		{
			"buffer":0,
			"byteLength":1212240,
			"byteOffset":14880264,
			"target":34963
		},
		{
			"buffer":0,
			"byteLength":788796,
			"byteOffset":16092504,
			"target":34962
		},
		{
			"buffer":0,
			"byteLength":788796,
			"byteOffset":16881300,
			"target":34962
		},
		{
			"buffer":0,
			"byteLength":1201248,
			"byteOffset":17670096,
			"target":34963
		},
		{
			"buffer":0,
			"byteLength":788340,
			"byteOffset":18871344,
			"target":34962
		},
		{
			"buffer":0,
			"byteLength":788340,
			"byteOffset":19659684,
			"target":34962
		},
		{
			"buffer":0,
			"byteLength":1146324,
			"byteOffset":20448024,
			"target":34963
		},
		{
			"buffer":0,
			"byteLength":787956,
			"byteOffset":21594348,
			"target":34962
		},
		{
			"buffer":0,
			"byteLength":787956,
			"byteOffset":22382304,
			"target":34962
		},
		{
			"buffer":0,
			"byteLength":1163688,
			"byteOffset":23170260,
			"target":34963
		},
		{
			"buffer":0,
			"byteLength":787872,
			"byteOffset":24333948,
			"target":34962
		},
		{
			"buffer":0,
			"byteLength":787872,
			"byteOffset":25121820,
			"target":34962
		},
		{
			"buffer":0,
			"byteLength":1071492,
			"byteOffset":25909692,
			"target":34963
		},
		{
			"buffer":0,
			"byteLength":789756,
			"byteOffset":26981184,
			"target":34962
		},
		{
			"buffer":0,
			"byteLength":789756,
			"byteOffset":27770940,
			"target":34962
		},
		{
			"buffer":0,
			"byteLength":649692,
			"byteOffset":28560696,
			"target":34963
		},
		{
			"buffer":0,
			"byteLength":661992,
			"byteOffset":29210388,
			"target":34962
		},
		{
			"buffer":0,
			"byteLength":661992,
			"byteOffset":29872380,
			"target":34962
		},
		{
			"buffer":0,
			"byteLength":166182,
			"byteOffset":30534372,
			"target":34963
		}
	],
	"buffers":[
		{
			"byteLength":30700556,
			"uri":"LadyMaria.bin"
		}
	]
}
